# xmcd
#
# Track frame offsets:
#	150
#	20504
#	34068
#	46950
#	61026
#	72696
#	89233
#	102539
#	116612
#	127525
#	138971
#	151149
#	161869
#	174200
#	186344
#	198962
#	213242
#	228040
#
# Disc length: 3203 seconds
#
# Revision: 1
# Processed by: cddbd v1.5.2PL0 Copyright (c) Steve Scherf et al.
# Submitted via: audiograbber 1.83.01
#
DISCID=f20c8112
DTITLE=Artisti Vari - GOSPEL COLLECTION
DYEAR=2007
DGENRE=GOSPEL
TTITLE0=Oh Happy Day - Etta James
TTITLE1=What Could I Do? - Mahalia Jackson
TTITLE2=Swing Low (Sweet Chariot) - Etta James
TTITLE3=Down By Riverside - Etta James
TTITLE4=Joshua Fit The Battle of Jericho - Mahalia Jackson
TTITLE5=Tell God My Troubles - Little Richard
TTITLE6=How I Got Over - Clara Ward
TTITLE7=Go Tell It On The Mountain - Mahalia Jackson
TTITLE8=Precious Lord - Cross Jordan Singers
TTITLE9=I Saw the Light - Etta James
TTITLE10=Go Down Moses - Ebony Three Vocal Trio
TTITLE11=Amazing Grace - Mahalia Jackson
TTITLE12=You Gotta Move - Sister Rosetta Tharpe e Marie Knight
TTITLE13=Crying In The Chapel - The Jordanaires
TTITLE14=Just A Closer Walk With Thee - Little Richard
TTITLE15=Nobody Knows The Trouble I've Seen - Louis Armstrong 
TTITLE16=The Fountain - Clara Ward
TTITLE17=when The Saints Go Marching In - Lousi Armstrong
EXTD=
EXTT0=
EXTT1=
EXTT2=
EXTT3=
EXTT4=
EXTT5=
EXTT6=
EXTT7=
EXTT8=
EXTT9=
EXTT10=
EXTT11=
EXTT12=
EXTT13=
EXTT14=
EXTT15=
EXTT16=
EXTT17=
PLAYORDER=
